<svg xmlns="http://www.w3.org/2000/svg" id="man-avatar-sikh-north-indian-profile-account" viewBox="0 0 16 16"><g transform="translate(0 -1036.362)"><circle cx="8" cy="1044.362" r="8" fill="#ffa40b"></circle><path fill="#2a2f3c" d="M6.199 1047.228h3.582v.859H6.199z"></path><rect width="6.2" height="6.023" x="-11.09" y="1041.205" fill="#666d7e" rx="3.012" ry="3.012" transform="scale(-1 1)"></rect><path fill="#ffce77" d="M7.824 1043.16c-.535.01-1.014.126-1.828.345v1.953c.051.722.247 1.227.635 1.537-.045.358-.2.566-.457.756-.303.225-.745.399-1.211.598-.466.199-.96.438-1.34.859-.308.341-.52.802-.592 1.414a8 8 0 0 0 4.969 1.74 8 8 0 0 0 4.963-1.728c-.073-.6-.286-1.057-.592-1.387-.378-.407-.868-.626-1.328-.82-.46-.195-.898-.367-1.197-.598-.294-.227-.463-.489-.469-.99.405-.335.598-.806.615-1.381v-1.975c-1.04-.228-1.633-.332-2.168-.324z"></path><path fill="#414d6a" d="m9.564 1047.462-1.56 2.037-1.563-2.008c-.069.09-.147.174-.25.25-.303.226-.752.396-1.218.596-.466.2-.975.44-1.355.862-.31.344-.514.819-.585 1.433a8.007 8.007 0 0 0 4.967 1.73 8 8 0 0 0 4.969-1.732c-.073-.6-.286-1.051-.592-1.383-.378-.409-.852-.62-1.313-.815-.46-.195-.888-.396-1.187-.628a1.13 1.13 0 0 1-.313-.342z"></path><circle cx="8.057" cy="1041.49" r="1.125" fill="#666d7e"></circle><path fill="#323b52" d="m6.267 1047.268 1.105 1.43-.59.491c-.197.198-.315.03-.367-.062l-.686-1.116.382-.714c.06-.103.118-.066.155-.03zm3.442 0-1.104 1.43.59.491c.196.198.314.03.367-.062l.686-1.116-.383-.714c-.059-.103-.118-.066-.155-.03z"></path><path fill="#969caa" d="M7.902 1041.206a3.005 3.005 0 0 0-3.012 3.012c0 1.204.704 2.23 1.721 2.713a3.605 3.605 0 0 1-.613-2.02 3.6 3.6 0 0 1 2.992-3.553 2.99 2.99 0 0 0-.912-.152h-.176z"></path><path fill="#838a9b" d="M8.078 1041.206a3.005 3.005 0 0 1 3.012 3.012c0 1.204-.704 2.23-1.72 2.713.387-.576.613-1.27.613-2.02a3.6 3.6 0 0 0-2.993-3.553 2.99 2.99 0 0 1 .912-.152h.176z"></path></g></svg>