<svg xmlns="http://www.w3.org/2000/svg" id="man-human-avatar-profile-curly-hair-person" viewBox="0 0 16 16"><g transform="translate(0 -1036.362)"><circle cx="8" cy="1044.362" r="8" fill="#ef4c45" fill-rule="evenodd"></circle><circle cx="5.266" cy="1043.062" r=".706" fill="#272a4d"></circle><circle cx="10.561" cy="1044.954" r=".469" fill="#272a4d"></circle><circle cx="10.056" cy="1045.575" r=".463" fill="#272a4d"></circle><circle cx="5.99" cy="1045.913" r=".548" fill="#272a4d"></circle><circle cx="5.672" cy="1045.277" r=".633" fill="#272a4d"></circle><path fill="#188fc2" d="M6.015 1046.604h3.947v.947H6.015z"></path><circle cx="8.001" cy="1042.948" r="2.961" fill="#272a4d"></circle><path fill="#ffce77" fill-rule="evenodd" d="M8.818 1041.92c-.85-.02-2.234.079-2.234.079 0 .588-.776.932-.791 1.531v1.123c.056.796.27 1.352.697 1.693-.05.395-.219.623-.502.832-.334.248-.82.441-1.334.66-.513.22-1.059.484-1.478.948-.316.349-.544.803-.639 1.406a8 8 0 0 0 5.463 2.17 8 8 0 0 0 5.457-2.16c-.096-.59-.328-1.036-.64-1.373-.417-.45-.957-.69-1.463-.904-.507-.215-.991-.406-1.32-.66-.324-.25-.51-.538-.516-1.09.445-.37.658-.888.677-1.522v-1.459c0-.801-.606-1.273-1.377-1.273z"></path><path fill="#1baee0" fill-rule="evenodd" d="m9.725 1046.86-1.721 2.244-1.72-2.213c-.077.1-.163.193-.276.278-.334.249-.83.436-1.344.656-.513.22-1.061.503-1.48.969-.318.352-.547.8-.641 1.406A8 8 0 0 0 8 1052.362a8 8 0 0 0 5.463-2.164c-.096-.589-.326-1.03-.639-1.37-.416-.45-.94-.684-1.447-.9-.507-.215-.98-.435-1.309-.691a1.245 1.245 0 0 1-.343-.377z"></path><circle cx="11.126" cy="1043.824" r=".402" fill="#272a4d"></circle><circle cx="10.906" cy="1043.532" r=".292" fill="#272a4d"></circle><circle cx="10.797" cy="1044.323" r=".463" fill="#272a4d"></circle><circle cx="5.039" cy="1044.765" r=".511" fill="#272a4d"></circle><circle cx="5.124" cy="1044.299" r=".609" fill="#272a4d"></circle><circle cx="8.113" cy="1039.959" r=".597" fill="#272a4d"></circle><circle cx="8.934" cy="1039.971" r=".487" fill="#272a4d"></circle><circle cx="9.987" cy="1040.841" r=".676" fill="#272a4d"></circle><circle cx="9.622" cy="1040.166" r=".365" fill="#272a4d"></circle><circle cx="11.12" cy="1042.083" r=".457" fill="#272a4d"></circle><circle cx="10.766" cy="1041.858" r=".347" fill="#272a4d"></circle><circle cx="11.174" cy="1042.631" r=".414" fill="#272a4d"></circle><circle cx="11.004" cy="1043.13" r=".292" fill="#272a4d"></circle><circle cx="10.663" cy="1041.462" r=".621" fill="#272a4d"></circle><circle cx="11.028" cy="1043.045" r=".56" fill="#272a4d"></circle><circle cx="7.516" cy="1040.007" r=".645" fill="#272a4d"></circle><circle cx="6.828" cy="1040.001" r=".402" fill="#272a4d"></circle><circle cx="5.733" cy="1041.133" r=".645" fill="#272a4d"></circle><circle cx="5.355" cy="1042.022" r=".402" fill="#272a4d"></circle><circle cx="5.008" cy="1043.653" r=".56" fill="#272a4d"></circle><circle cx="6.407" cy="1040.699" r=".779" fill="#272a4d"></circle><circle cx="5.367" cy="1042.12" r=".803" fill="#272a4d"></circle><path fill="#1b9ed6" d="m6.09 1046.648 1.218 1.576-.65.54c-.217.218-.347.034-.405-.067l-.756-1.23.422-.788c.065-.113.13-.073.17-.032zm3.793 0-1.217 1.576.65.54c.217.218.346.034.405-.067l.755-1.23-.42-.788c-.066-.113-.131-.073-.172-.032z"></path><rect width="4.394" height="4.31" x="5.794" y="1041.089" fill="#ffce77" rx="2.197" ry="2.155"></rect></g></svg>