<svg xmlns="http://www.w3.org/2000/svg" id="avatar-man-people-person-rockstar-profile-human" viewBox="0 0 16 16"><g transform="translate(0 -1036.362)"><circle cx="8" cy="1044.362" r="8" fill="#ef4c45" fill-rule="evenodd"></circle><path fill="#2a2f3c" d="M5.904 1046.224h4.169v1H5.904z"></path><rect width="2.872" height="3.581" x="-7.959" y="1039.362" fill="#272a4d" rx=".304" ry=".36" transform="scale(-1 1)"></rect><rect width="5.487" height="3.581" x="-10.573" y="1040.378" fill="#272a4d" rx=".936" ry=".936" transform="scale(-1 1)"></rect><rect width="4.958" height="3.435" x="-10.044" y="1039.362" fill="#272a4d" rx="1.541" ry="1.718" transform="scale(-1 1)"></rect><path fill="#ffce77" fill-rule="evenodd" d="M8.863 1041.278c-.897-.022-2.36.082-2.36.082 0 .621-.82.985-.835 1.617v1.188c.06.84.287 1.426.738 1.787-.052.417-.232.657-.531.879-.353.262-.866.465-1.408.697-.542.232-1.118.51-1.56 1-.317.35-.548.806-.657 1.395a8 8 0 0 0 5.75 2.439 8 8 0 0 0 5.738-2.438c-.11-.57-.339-1.016-.65-1.351-.44-.474-1.01-.727-1.545-.953-.535-.226-1.046-.429-1.395-.697-.341-.265-.54-.57-.546-1.153.47-.39.696-.936.716-1.605V1042.623c0-.846-.641-1.345-1.455-1.345z"></path><path fill="#414d6a" fill-rule="evenodd" d="m9.824 1046.493-1.82 2.373-1.816-2.338c-.08.105-.172.204-.292.293-.352.263-.877.46-1.42.693-.542.233-1.12.53-1.562 1.022-.318.353-.55.804-.658 1.394A8 8 0 0 0 8 1052.362a8 8 0 0 0 5.744-2.443c-.11-.57-.34-1.01-.65-1.346-.44-.476-.992-.722-1.528-.95-.535-.226-1.032-.46-1.38-.73-.156-.12-.27-.24-.362-.4z"></path><path fill="#323b52" d="m5.983 1046.27 1.286 1.665-.687.571c-.23.23-.366.035-.427-.072l-.798-1.3.445-.83c.068-.12.137-.078.18-.035zm4.006 0-1.285 1.665.686.571c.23.23.366.035.427-.072l.799-1.3-.445-.83c-.07-.12-.138-.078-.181-.035z"></path></g></svg>