<svg xmlns="http://www.w3.org/2000/svg" viewBox="0 0 32 32" id="dentist"><path fill="#fff" d="M27.5,21.5v7a2.996,2.996,0,0,1-3,3H7.5a2.996,2.996,0,0,1-3-3v-7A7.0026,7.0026,0,0,1,10,14.66,5.47154,5.47154,0,0,1,11,14.53a4.06629,4.06629,0,0,1,.5-.03h9a4.06629,4.06629,0,0,1,.5.03A5.47154,5.47154,0,0,1,22,14.66,7.0026,7.0026,0,0,1,27.5,21.5Z"></path><path fill="#fcc37a" d="M18.5,11.5v3.2759a2,2,0,0,1-.46356,1.28037l-1.26822,1.52187a1,1,0,0,1-1.53644,0l-1.26822-1.52187A2,2,0,0,1,13.5,14.7759V11.5Z"></path><path fill="#ffd8a9" d="M20.8,5.29a4.89705,4.89705,0,0,1-.03.54l-.04.33L20.46,8.59l-.09.83a3.52239,3.52239,0,0,1-1.78,2.71l-1.41.81a2.36771,2.36771,0,0,1-2.36,0l-1.41-.81a3.52239,3.52239,0,0,1-1.78-2.71l-.09-.84-.2-1.78-.11-.97a4.7997,4.7997,0,1,1,9.57-.54Z"></path><path fill="#57565e" d="M20.8,5.29a4.89705,4.89705,0,0,1-.03.54l-.04.33a.41475.41475,0,0,1-.1-.04,10.71572,10.71572,0,0,1-2.59-1.89,19.42415,19.42415,0,0,1-5.02,2.18c-.58.16-1.15.29-1.68.39l-.11-.97a4.7997,4.7997,0,1,1,9.57-.54Z"></path><path fill="#fff" d="M20.46,8.59l-.09.83a3.52239,3.52239,0,0,1-1.78,2.71l-1.41.81a2.36771,2.36771,0,0,1-2.36,0l-1.41-.81a3.52239,3.52239,0,0,1-1.78-2.71l-.09-.84A23.06642,23.06642,0,0,0,16,9,24.86161,24.86161,0,0,0,20.46,8.59Z"></path><circle cx="21.5" cy="24.5" r="2" fill="#8b8891"></circle><path d="M21.5918,14.08887l-.0202-.00269a.46917.46917,0,0,0-.07159-.0144l-.015.00305A6.01911,6.01911,0,0,0,20.5,14H19V12.5c0-.01129-.00568-.02069-.00641-.0318A4.08485,4.08485,0,0,0,20.87109,9.478l.39844-3.59033a5.302,5.302,0,1,0-10.53906,0L11.12891,9.478a4.08485,4.08485,0,0,0,1.8775,2.99017C13.00568,12.47931,13,12.48871,13,12.5V14H11.5a5.96265,5.96265,0,0,0-.98773.07422L10.5,14.07178a.46331.46331,0,0,0-.05652.01141l-.01379.00177A7.51731,7.51731,0,0,0,4,21.5v7A3.50425,3.50425,0,0,0,7.5,32h17A3.50425,3.50425,0,0,0,28,28.5v-7A7.51045,7.51045,0,0,0,21.5918,14.08887ZM21.5,23A1.5,1.5,0,1,1,20,24.5,1.50164,1.50164,0,0,1,21.5,23ZM11.72461,5.77734a4.29176,4.29176,0,1,1,8.55286-.4303,10.198,10.198,0,0,1-1.88879-1.472.50024.50024,0,0,0-.6084-.0708A19.18368,19.18368,0,0,1,12.8916,5.93066c-.414.10944-.777.19342-1.12042.26648Zm.15729,1.4173c.38721-.08.79767-.17346,1.27045-.29865a20.03882,20.03882,0,0,0,4.81641-2.04053,10.63083,10.63083,0,0,0,2.23273,1.58789l-.17712,1.59583A18.05641,18.05641,0,0,1,16,8.5h-.00488a18.02712,18.02712,0,0,1-4.01947-.46075Zm.24115,2.173-.03131-.282A19.01091,19.01091,0,0,0,15.99512,9.5H16a19.03467,19.03467,0,0,0,3.90839-.41534l-.03143.283a3.08511,3.08511,0,0,1-1.53125,2.33154l-1.41113.80615a1.88785,1.88785,0,0,1-1.86914,0l-1.41113-.80615A3.08511,3.08511,0,0,1,12.123,9.36768ZM15.5,31h-8A2.50263,2.50263,0,0,1,5,28.5v-7a6.50227,6.50227,0,0,1,5-6.28857v4.87775a2.50379,2.50379,0,0,0-2,2.4494V26.5a.49971.49971,0,0,0,.5.5h1a.5.5,0,0,0,0-1H9V22.53857a1.5,1.5,0,0,1,3,0V26h-.5a.5.5,0,0,0,0,1h1a.49971.49971,0,0,0,.5-.5V22.53857a2.50379,2.50379,0,0,0-2-2.4494V15.01892c.15344-.01239.31879-.01892.5-.01892h1.51965a2.49306,2.49306,0,0,0,.56042,1.376l1.26758,1.52246A1.49064,1.49064,0,0,0,15.5,18.3432ZM16,17.438a.49509.49509,0,0,1-.38477-.17969l-1.26758-1.52246a1.49989,1.49989,0,0,1-.34766-.96v-1.7276l.56934.32526a2.89363,2.89363,0,0,0,2.86133,0L18,13.04828v1.7276a1.50218,1.50218,0,0,1-.34766.96045l-1.26758,1.52148A.49427.49427,0,0,1,16,17.438ZM27,28.5A2.50263,2.50263,0,0,1,24.5,31h-8V18.3432a1.49,1.49,0,0,0,.65234-.44525l1.26758-1.52148A2.49582,2.49582,0,0,0,18.98035,15H20.5c.17993,0,.34467.00635.5.019V22.0506a2.5,2.5,0,1,0,1,0V15.21045A6.49872,6.49872,0,0,1,27,21.5Z" fill="#000000"></path></svg>