<svg xmlns="http://www.w3.org/2000/svg" viewBox="0 0 25 25" id="setting"><g transform="translate(4.499 -1031.861)"><circle cx="8.001" cy="1044.361" r="12.5" fill="#424242" fill-rule="evenodd"></circle><path d="M6.984 1a.5.5 0 0 0-.488.396l-.195.928a5.936 5.936 0 0 0-1.13.436l-.796-.498a.5.5 0 0 0-.62.072L2.319 3.771a.5.5 0 0 0-.068.622l.52.816c-.184.34-.335.7-.452 1.078l-.949.225A.5.5 0 0 0 .984 7v2a.5.5 0 0 0 .385.486l.95.225c.116.379.267.738.45 1.078l-.519.816a.5.5 0 0 0 .064.62l1.407 1.437a.5.5 0 0 0 .627.072l.822-.523c.362.192.739.344 1.129.457l.197.934a.5.5 0 0 0 .488.398h2a.5.5 0 0 0 .49-.395l.196-.904a5.95 5.95 0 0 0 1.162-.46l.795.495a.5.5 0 0 0 .613-.066l1.406-1.375a.5.5 0 0 0 .079-.617l-.498-.823c.19-.353.342-.724.457-1.107l.935-.197a.5.5 0 0 0 .397-.489V7a.5.5 0 0 0-.395-.49l-.902-.196a5.961 5.961 0 0 0-.461-1.134l.494-.791a.5.5 0 0 0-.07-.618l-1.438-1.437a.5.5 0 0 0-.617-.072l-.793.496a5.968 5.968 0 0 0-1.133-.46l-.195-.903A.5.5 0 0 0 9.016 1H6.984zm.407 1h1.222l.164.762a.5.5 0 0 0 .375.38 4.987 4.987 0 0 1 1.477.594.5.5 0 0 0 .527 0l.662-.414.875.875-.414.662a.5.5 0 0 0-.002.528c.272.44.47.942.596 1.476a.5.5 0 0 0 .38.375l.763.164v1.254l-.79.166a.5.5 0 0 0-.382.37 4.95 4.95 0 0 1-.594 1.447.5.5 0 0 0-.006.525l.42.691-.842.825-.666-.418a.5.5 0 0 0-.527 0 4.987 4.987 0 0 1-1.506.593.5.5 0 0 0-.377.381L8.582 14H7.391l-.166-.791a.5.5 0 0 0-.371-.383c-.543-.131-1.044-.32-1.479-.594a.5.5 0 0 0-.533 0l-.69.438-.845-.863.443-.698a.5.5 0 0 0 .006-.529 4.976 4.976 0 0 1-.598-1.42.5.5 0 0 0-.37-.369l-.804-.19V7.394l.803-.19a.5.5 0 0 0 .371-.369c.122-.504.33-.98.598-1.42a.5.5 0 0 0-.006-.53l-.44-.693.872-.87.664.413a.5.5 0 0 0 .529 0c.418-.26.927-.43 1.479-.564a.5.5 0 0 0 .37-.383L7.392 2Zm.625 3c-1.651 0-3 1.35-3 3s1.349 2.998 3 2.998c1.65 0 3-1.347 3-2.998 0-1.65-1.35-3-3-3zm0 1c1.11 0 2 .89 2 2 0 1.11-.89 1.998-2 1.998-1.111 0-2-.888-2-1.998 0-1.11.889-2 2-2z" color="#000" font-family="sans-serif" font-weight="400" overflow="visible" style="line-height:normal;text-indent:0;text-align:start;text-decoration-line:none;text-decoration-style:solid;text-decoration-color:#000;text-transform:none;block-progression:tb;isolation:auto;mix-blend-mode:normal" transform="translate(.001 1036.861)" fill="#fff"></path></g></svg>